<?xml version="1.0" encoding="UTF-8"?>
<svg width="444px" height="331px" viewBox="0 0 444 331" version="1.1" xmlns="http://www.w3.org/2000/svg" xmlns:xlink="http://www.w3.org/1999/xlink">
    <!-- Generator: Sketch 46.2 (44496) - http://www.bohemiancoding.com/sketch -->
    <title>Node-triangle+Social-circles</title>
    <desc>Created with Sketch.</desc>
    <defs>
        <radialGradient cx="50%" cy="50%" fx="50%" fy="50%" r="669.067264%" gradientTransform="translate(0.500000,0.500000),scale(0.995344,1.000000),rotate(153.775741),translate(-0.500000,-0.500000)" id="radialGradient-1">
            <stop stop-color="#151821" offset="0%"></stop>
            <stop stop-color="#FDFDFD" offset="100%"></stop>
        </radialGradient>
        <radialGradient cx="50%" cy="50%" fx="50%" fy="50%" r="52.2851163%" gradientTransform="translate(0.500000,0.500000),scale(0.995344,1.000000),rotate(-90.000000),scale(1.000000,0.959876),translate(-0.500000,-0.500000)" id="radialGradient-2">
            <stop stop-color="#D7EEF1" offset="0%"></stop>
            <stop stop-color="#5AD8EA" offset="100%"></stop>
        </radialGradient>
        <ellipse id="path-3" cx="65.0307726" cy="64.7279745" rx="65.0307726" ry="64.7279745"></ellipse>
        <filter x="-3.1%" y="-2.3%" width="106.2%" height="106.2%" filterUnits="objectBoundingBox" id="filter-4">
            <feMorphology radius="0.5" operator="dilate" in="SourceAlpha" result="shadowSpreadOuter1"></feMorphology>
            <feOffset dx="0" dy="1" in="shadowSpreadOuter1" result="shadowOffsetOuter1"></feOffset>
            <feGaussianBlur stdDeviation="1" in="shadowOffsetOuter1" result="shadowBlurOuter1"></feGaussianBlur>
            <feComposite in="shadowBlurOuter1" in2="SourceAlpha" operator="out" result="shadowBlurOuter1"></feComposite>
            <feColorMatrix values="0 0 0 0 0.111314838   0 0 0 0 0.107798916   0 0 0 0 0.107798916  0 0 0 0.0406759511 0" type="matrix" in="shadowBlurOuter1"></feColorMatrix>
        </filter>
        <filter x="-3.1%" y="-2.3%" width="106.2%" height="106.2%" filterUnits="objectBoundingBox" id="filter-5">
            <feGaussianBlur stdDeviation="1" in="SourceAlpha" result="shadowBlurInner1"></feGaussianBlur>
            <feOffset dx="0" dy="1" in="shadowBlurInner1" result="shadowOffsetInner1"></feOffset>
            <feComposite in="shadowOffsetInner1" in2="SourceAlpha" operator="arithmetic" k2="-1" k3="1" result="shadowInnerInner1"></feComposite>
            <feColorMatrix values="0 0 0 0 0.031372549   0 0 0 0 0.031372549   0 0 0 0 0.031372549  0 0 0 0.02 0" type="matrix" in="shadowInnerInner1"></feColorMatrix>
        </filter>
        <radialGradient cx="50%" cy="50%" fx="50%" fy="50%" r="52.2851163%" gradientTransform="translate(0.500000,0.500000),scale(0.995344,1.000000),rotate(-90.000000),scale(1.000000,0.959876),translate(-0.500000,-0.500000)" id="radialGradient-6">
            <stop stop-color="#D7EEF1" offset="0%"></stop>
            <stop stop-color="#5AD8EA" offset="100%"></stop>
        </radialGradient>
        <ellipse id="path-7" cx="46.2728278" cy="46.0573709" rx="46.2728278" ry="46.0573709"></ellipse>
        <filter x="-4.3%" y="-3.3%" width="108.6%" height="108.7%" filterUnits="objectBoundingBox" id="filter-8">
            <feMorphology radius="0.5" operator="dilate" in="SourceAlpha" result="shadowSpreadOuter1"></feMorphology>
            <feOffset dx="0" dy="1" in="shadowSpreadOuter1" result="shadowOffsetOuter1"></feOffset>
            <feGaussianBlur stdDeviation="1" in="shadowOffsetOuter1" result="shadowBlurOuter1"></feGaussianBlur>
            <feComposite in="shadowBlurOuter1" in2="SourceAlpha" operator="out" result="shadowBlurOuter1"></feComposite>
            <feColorMatrix values="0 0 0 0 0.111314838   0 0 0 0 0.107798916   0 0 0 0 0.107798916  0 0 0 0.0406759511 0" type="matrix" in="shadowBlurOuter1"></feColorMatrix>
        </filter>
        <filter x="-4.3%" y="-3.3%" width="108.6%" height="108.7%" filterUnits="objectBoundingBox" id="filter-9">
            <feGaussianBlur stdDeviation="1" in="SourceAlpha" result="shadowBlurInner1"></feGaussianBlur>
            <feOffset dx="0" dy="1" in="shadowBlurInner1" result="shadowOffsetInner1"></feOffset>
            <feComposite in="shadowOffsetInner1" in2="SourceAlpha" operator="arithmetic" k2="-1" k3="1" result="shadowInnerInner1"></feComposite>
            <feColorMatrix values="0 0 0 0 0.031372549   0 0 0 0 0.031372549   0 0 0 0 0.031372549  0 0 0 0.02 0" type="matrix" in="shadowInnerInner1"></feColorMatrix>
        </filter>
        <radialGradient cx="50%" cy="50%" fx="50%" fy="50%" r="52.2851163%" gradientTransform="translate(0.500000,0.500000),scale(0.995344,1.000000),rotate(-90.000000),scale(1.000000,0.959876),translate(-0.500000,-0.500000)" id="radialGradient-10">
            <stop stop-color="#D7EEF1" offset="0%"></stop>
            <stop stop-color="#5AD8EA" offset="100%"></stop>
        </radialGradient>
        <ellipse id="path-11" cx="46.2728278" cy="46.0573709" rx="46.2728278" ry="46.0573709"></ellipse>
        <filter x="-4.3%" y="-3.3%" width="108.6%" height="108.7%" filterUnits="objectBoundingBox" id="filter-12">
            <feMorphology radius="0.5" operator="dilate" in="SourceAlpha" result="shadowSpreadOuter1"></feMorphology>
            <feOffset dx="0" dy="1" in="shadowSpreadOuter1" result="shadowOffsetOuter1"></feOffset>
            <feGaussianBlur stdDeviation="1" in="shadowOffsetOuter1" result="shadowBlurOuter1"></feGaussianBlur>
            <feComposite in="shadowBlurOuter1" in2="SourceAlpha" operator="out" result="shadowBlurOuter1"></feComposite>
            <feColorMatrix values="0 0 0 0 0.111314838   0 0 0 0 0.107798916   0 0 0 0 0.107798916  0 0 0 0.0406759511 0" type="matrix" in="shadowBlurOuter1"></feColorMatrix>
        </filter>
        <filter x="-4.3%" y="-3.3%" width="108.6%" height="108.7%" filterUnits="objectBoundingBox" id="filter-13">
            <feGaussianBlur stdDeviation="1" in="SourceAlpha" result="shadowBlurInner1"></feGaussianBlur>
            <feOffset dx="0" dy="1" in="shadowBlurInner1" result="shadowOffsetInner1"></feOffset>
            <feComposite in="shadowOffsetInner1" in2="SourceAlpha" operator="arithmetic" k2="-1" k3="1" result="shadowInnerInner1"></feComposite>
            <feColorMatrix values="0 0 0 0 0.031372549   0 0 0 0 0.031372549   0 0 0 0 0.031372549  0 0 0 0.02 0" type="matrix" in="shadowInnerInner1"></feColorMatrix>
        </filter>
    </defs>
    <g id="LRG-final1" stroke="none" stroke-width="1" fill="none" fill-rule="evenodd" opacity="0.666213768">
        <g id="Large-Screen-Final-round1" transform="translate(-290.000000, -871.000000)">
            <g id="Section2-Gear+Triangle" transform="translate(1.000000, 768.000000)">
                <g id="Figure+disciption" transform="translate(78.000000, 65.000000)">
                    <g id="Node-triangle+Social-circles" transform="translate(214.000000, 39.000000)">
                        <g id="Circles">
                            <g id="NodeConnections" transform="translate(45.209085, 64.532305)" stroke="#FE0151">
                                <path d="M176.847302,0.264697534 L0.797807375,221.551836" id="Path-2"></path>
                                <path d="M177.379173,0.264697534 L346.780272,220.228348" id="Path-3"></path>
                                <path d="M177.113237,0.529395068 C176.758656,0.529395068 153.356307,41.8222104 106.906188,124.407841 L128.742577,222.027848 L279.232581,132.348767 L182.431953,124.407841 C179.240724,41.8222104 177.467818,0.529395068 177.113237,0.529395068 Z" id="Path-4"></path>
                                <path d="M182.431953,123.878446 C59.6709031,189.170504 -0.962457451,221.816534 0.531871584,221.816534 C91.4698207,221.816534 91.468434,221.816534 127.64918,221.816534" id="Path-5"></path>
                                <polyline id="Path-6" points="347.312144 220.757743 202.111202 220.757743 236.682855 129.172397"></polyline>
                                <path d="M177.113237,0.529395068 C245.547381,147.697615 279.587162,221.459036 279.232581,221.813658 C278.878,222.16828 221.258579,189.720348 106.374317,124.46986 L0.531871584,221.813658" id="Path-7"></path>
                                <polyline id="Path-8" points="346.248401 220.228348 182.431953 123.878446 107.43806 123.878446 202.643073 220.228348"></polyline>
                            </g>
                            <g id="Nodes" transform="translate(148.392172, 185.234380)" fill="url(#radialGradient-1)">
                                <ellipse id="Oval-5" cx="175.783558" cy="11.911389" rx="3.98903688" ry="3.97046301"></ellipse>
                                <ellipse id="Oval-5-Copy" cx="175.783558" cy="100.320365" rx="3.98903688" ry="3.97046301"></ellipse>
                                <ellipse id="Oval-5-Copy-2" cx="99.1940503" cy="99.2615753" rx="3.98903688" ry="3.97046301"></ellipse>
                                <ellipse id="Oval-5-Copy-3" cx="126.851373" cy="71.7330317" rx="3.98903688" ry="3.97046301"></ellipse>
                                <ellipse id="Oval-5-Copy-4" cx="134.829446" cy="8.20562355" rx="3.98903688" ry="3.97046301"></ellipse>
                                <ellipse id="Oval-5-Copy-5" cx="79.5148017" cy="3.97046301" rx="3.98903688" ry="3.97046301"></ellipse>
                                <ellipse id="Oval-5-Copy-6" cx="3.98903688" cy="4.49985808" rx="3.98903688" ry="3.97046301"></ellipse>
                                <ellipse id="Oval-5-Copy-7" cx="26.7942317" cy="99.9423245" rx="3.98903688" ry="3.97046301"></ellipse>
                                <ellipse id="Oval-5-Copy-8" cx="148.658108" cy="43.145698" rx="3.98903688" ry="3.97046301"></ellipse>
                                <ellipse id="Oval-5-Copy-9" cx="40.6881761" cy="25.1462657" rx="3.98903688" ry="3.97046301"></ellipse>
                                <ellipse id="Oval-5-Copy-10" cx="28.9870013" cy="29.3814263" rx="3.98903688" ry="3.97046301"></ellipse>
                                <ellipse id="Oval-5-Copy-11" cx="11.9671106" cy="39.4399326" rx="3.98903688" ry="3.97046301"></ellipse>
                            </g>
                            <g id="SocialCommunity" transform="translate(157.174891, 0.322323)">
                                <g id="socialCommunity">
                                    <use fill="black" fill-opacity="1" filter="url(#filter-4)" xlink:href="#path-3"></use>
                                    <use fill="url(#radialGradient-2)" fill-rule="evenodd" xlink:href="#path-3"></use>
                                    <use fill="black" fill-opacity="1" filter="url(#filter-5)" xlink:href="#path-3"></use>
                                    <use stroke="#FAFAFA" stroke-width="1" xlink:href="#path-3"></use>
                                </g>
                                <g id="stick-men" transform="translate(37.825109, 37.677677)" fill-rule="nonzero">
                                    <path d="M11.4366993,43.3255814 C5.12043236,43.3255814 0,48.385909 0,54.627907 L3.81219833,54.627907 L15.2553621,54.627907 L20.0930233,47.2415392 C17.9961161,44.8432675 14.8958506,43.3255814 11.4366993,43.3255814 Z" id="Shape" fill="#77BFFD"></path>
                                    <path d="M42.6976744,43.3255814 L50.2325925,54.627907 L54,54.627907 C54,48.385909 48.9397293,43.3255814 42.6976744,43.3255814 Z" id="Shape" fill="#ED2F49"></path>
                                    <path d="M42.5873063,43.3255814 C39.1187502,43.3255814 36.0098575,44.8432675 33.9069767,47.2414362 L38.7579367,54.627907 L50.2325581,54.627907 C50.2327672,48.385909 46.8097964,43.3255814 42.5873063,43.3255814 Z" id="Shape" fill="#FF455E"></path>
                                    <path d="M19.4651163,13.1860465 L19.4651163,26.372093 C23.2797085,26.372093 26.372093,23.4203756 26.372093,19.7790698 C26.372093,16.137764 23.2797085,13.1860465 19.4651163,13.1860465 Z" id="Shape" fill="#A0613C"></path>
                                    <path d="M27,0 L27,13.1860465 C30.8145922,13.1860465 33.9069767,10.2343291 33.9069767,6.59302326 C33.9069767,2.95171744 30.8145922,0 27,0 Z" id="Shape-Copy-4" fill="#A0613C"></path>
                                    <path d="M23.2325581,19.7790698 C23.2325581,16.137764 21.3915618,13.1860465 19.120623,13.1860465 C15.4962879,13.1860465 12.5581395,16.1378681 12.5581395,19.7790698 C12.5581395,23.4202714 15.4962879,26.372093 19.120623,26.372093 C21.3916655,26.372093 23.2325581,23.4203756 23.2325581,19.7790698 Z" id="Shape" fill="#BF7447"></path>
                                    <path d="M30.7674419,6.59302326 C30.7674419,2.95171744 28.9264456,0 26.6555067,0 C23.0311716,0 20.0930233,2.95182163 20.0930233,6.59302326 C20.0930233,10.2342249 23.0311716,13.1860465 26.6555067,13.1860465 C28.9265493,13.1860465 30.7674419,10.2343291 30.7674419,6.59302326 Z" id="Shape-Copy-5" fill="#BF7447"></path>
                                    <path d="M27,27 L27,40.1860465 C30.8145922,40.1860465 33.9069767,37.2343291 33.9069767,33.5930233 C33.9069767,29.9517174 30.8145922,27 27,27 Z" id="Shape" fill="#FEBB8E"></path>
                                    <path d="M30.7674419,33.5930233 C30.7674419,29.9517174 28.9264456,27 26.6555067,27 C23.0311716,27 20.0930233,29.9518216 20.0930233,33.5930233 C20.0930233,37.2342249 23.0311716,40.1860465 26.6555067,40.1860465 C28.9264456,40.1859423 30.7674419,37.2342249 30.7674419,33.5930233 Z" id="Shape" fill="#FCD5A2"></path>
                                    <path d="M11.3023256,27 L11.3023256,40.1860465 C15.1169178,40.1860465 18.2093023,37.2343291 18.2093023,33.5930233 C18.2093023,29.9517174 15.1170269,27 11.3023256,27 Z" id="Shape" fill="#FEAB75"></path>
                                    <path d="M15.6976744,33.5930233 C15.6976744,29.9517174 13.8566781,27 11.5857393,27 C7.96140418,27 5.02325581,29.9518216 5.02325581,33.5930233 C5.02325581,37.2342249 7.96140418,40.1860465 11.5857393,40.1860465 C13.8566781,40.1859423 15.6976744,37.2342249 15.6976744,33.5930233 Z" id="Shape" fill="#FF9B5F"></path>
                                    <path d="M42.6976744,27 L42.6976744,40.1860465 C46.5122666,40.1860465 49.6046512,37.2343291 49.6046512,33.5930233 C49.6046512,29.9517174 46.5122666,27 42.6976744,27 Z" id="Shape" fill="#804E30"></path>
                                    <path d="M46.4651163,33.5930233 C46.4651163,29.9517174 44.62412,27 42.3531811,27 C38.728846,27 35.7906977,29.9518216 35.7906977,33.5930233 C35.7906977,37.2342249 38.728846,40.1860465 42.3531811,40.1860465 C44.62412,40.1859423 46.4651163,37.2342249 46.4651163,33.5930233 Z" id="Shape" fill="#A0613C"></path>
                                    <path d="M27,43.3255814 L34.5349181,54.627907 L38.3023256,54.627907 C38.3023256,48.385909 33.242158,43.3255814 27,43.3255814 Z" id="Shape" fill="#FFBB02"></path>
                                    <path d="M27.3767229,43.3255814 C20.9265047,43.3255814 15.6976744,48.3858059 15.6976744,54.627907 L35.1627907,54.627907 C35.1627907,48.385909 31.6768683,43.3255814 27.3767229,43.3255814 Z" id="Shape" fill="#FFCC3D"></path>
                                    <path d="M34.5348837,13.1860465 L34.5348837,26.372093 C38.3494759,26.372093 41.4418605,23.4203756 41.4418605,19.7790698 C41.4418605,16.137764 38.3494759,13.1860465 34.5348837,13.1860465 Z" id="Shape" fill="#FEAB75"></path>
                                    <path d="M38.9302326,19.7790698 C38.9302326,16.137764 37.0892363,13.1860465 34.8182974,13.1860465 C31.1939623,13.1860465 28.255814,16.1378681 28.255814,19.7790698 C28.255814,23.4202714 31.1938586,26.372093 34.8182974,26.372093 C37.0891326,26.372093 38.9302326,23.4203756 38.9302326,19.7790698 Z" id="Shape" fill="#FEBB8E"></path>
                                    <path d="M19.1440843,23.2325581 C18.0858417,23.2325581 17.0935002,22.7752855 16.4895708,22.0093274 C16.1997372,21.6416483 16.3042172,21.1373726 16.7230115,20.8829805 C17.1421337,20.6284925 17.7165552,20.7202923 18.0063888,21.0879714 C18.2657309,21.4169928 18.6911919,21.6134465 19.1440843,21.6134465 C19.6030969,21.6134465 20.0315086,21.412964 20.2903043,21.0771319 C20.5756571,20.706767 21.149095,20.6094994 21.5708401,20.8598627 C21.9929131,21.1103218 22.1037318,21.6135424 21.818379,21.9840033 C21.2160889,22.7658849 20.2163158,23.2325581 19.1440843,23.2325581 Z" id="Shape" fill="#804E30"></path>
                                    <path d="M27.306875,9.41860465 C26.2486324,9.41860465 25.2562909,8.96133199 24.6523615,8.19537389 C24.3625279,7.82769482 24.4670079,7.32341909 24.8858022,7.069027 C25.3049244,6.81453898 25.8793459,6.90633884 26.1691795,7.27401791 C26.4285216,7.60303936 26.8539826,7.79949298 27.306875,7.79949298 C27.7658876,7.79949298 28.1942993,7.59901053 28.453095,7.26317843 C28.7384478,6.89281347 29.3118857,6.79554591 29.7336308,7.04590917 C30.1557038,7.29636835 30.2665225,7.79958891 29.9811697,8.17004979 C29.3788796,8.95193137 28.3791065,9.41860465 27.306875,9.41860465 Z" id="Shape-Copy-6" fill="#804E30"></path>
                                    <path d="M27.306875,36.4186047 C26.2486324,36.4186047 25.2562909,35.9613351 24.6523615,35.1953821 C24.3625279,34.8277055 24.4670079,34.3234331 24.8858022,34.0690428 C25.3049244,33.8143646 25.8793459,33.9063557 26.1691795,34.2740323 C26.4285216,34.6030515 26.8539826,34.7995038 27.306875,34.7995038 C27.7658876,34.7995038 28.1942993,34.5990227 28.453095,34.2631929 C28.7384478,33.8929263 29.3118857,33.7954676 29.7336308,34.0459251 C30.1557038,34.2963826 30.2665225,34.7995998 29.9811697,35.1700582 C29.3790982,35.9518386 28.3792158,36.4186047 27.306875,36.4186047 Z" id="Shape" fill="#D16E71"></path>
                                    <path d="M11.6092006,36.4186047 C10.550958,36.4186047 9.55861651,35.9613351 8.9546871,35.1953821 C8.66485344,34.8277055 8.76933344,34.3234331 9.18812778,34.0690428 C9.60735927,33.8143646 10.1816714,33.9063557 10.4715051,34.2740323 C10.7308472,34.6030515 11.1563082,34.7995038 11.6092006,34.7995038 C12.0682132,34.7995038 12.4966249,34.5990227 12.7554206,34.2631929 C13.0407734,33.8929263 13.6142112,33.7954676 14.0359564,34.0459251 C14.4580294,34.2963826 14.5688481,34.7995998 14.2834953,35.1700582 C13.6813145,35.9518386 12.6815414,36.4186047 11.6092006,36.4186047 Z" id="Shape" fill="#BF6F40"></path>
                                    <path d="M42.3766424,36.4186047 C41.3183999,36.4186047 40.3260584,35.9613351 39.722129,35.1953821 C39.4322953,34.8277055 39.5367753,34.3234331 39.9555696,34.0690428 C40.3746918,33.8143646 40.9491133,33.9063557 41.238947,34.2740323 C41.4982891,34.6030515 41.92375,34.7995038 42.3766424,34.7995038 C42.835655,34.7995038 43.2640668,34.5990227 43.5228624,34.2631929 C43.808106,33.8929263 44.3817624,33.7954676 44.8033982,34.0459251 C45.2254712,34.2963826 45.33629,34.7995998 45.0509372,35.1700582 C44.4487564,35.9518386 43.4490925,36.4186047 42.3766424,36.4186047 Z" id="Shape" fill="#C17E56"></path>
                                    <path d="M34.8417587,23.2325581 C33.7835161,23.2325581 32.7911746,22.7752855 32.1872452,22.0093274 C31.8974116,21.6416483 32.0018916,21.1373726 32.4206859,20.8829805 C32.8398081,20.6284925 33.4141203,20.7202923 33.7040632,21.0879714 C33.9634054,21.4169928 34.3888663,21.6134465 34.8417587,21.6134465 C35.3007713,21.6134465 35.729183,21.412964 35.9879787,21.0771319 C36.2733315,20.706767 36.8467694,20.6094994 37.2685145,20.8598627 C37.6905875,21.1103218 37.8014063,21.6135424 37.5160534,21.9840033 C36.9139819,22.7658849 35.9142088,23.2325581 34.8417587,23.2325581 Z" id="Shape" fill="#F78D45"></path>
                                </g>
                            </g>
                            <g id="SocialMission" transform="translate(0.000000, 233.938727)">
                                <g id="socialMission">
                                    <use fill="black" fill-opacity="1" filter="url(#filter-8)" xlink:href="#path-7"></use>
                                    <use fill="url(#radialGradient-6)" fill-rule="evenodd" xlink:href="#path-7"></use>
                                    <use fill="black" fill-opacity="1" filter="url(#filter-9)" xlink:href="#path-7"></use>
                                    <use stroke="#FAFAFA" stroke-width="1" xlink:href="#path-7"></use>
                                </g>
                                <g id="loving-hands" transform="translate(27.000000, 24.061273)" fill-rule="nonzero">
                                    <path d="M24.849423,0 C24.5464623,0 24.2492378,0.0225744248 23.958985,0.0652638039 L19.5,23.2279412 L29.733506,9.76488804 C30.5097491,8.74376863 30.9705882,7.47178324 30.9705882,6.09254738 C30.9704117,2.72764051 28.2299985,0 24.849423,0 Z" id="Shape" fill="#ED2F49"></path>
                                    <path d="M23.8262154,0.0652638039 C21.8959851,0.351440753 20.280196,1.56237857 19.4043461,3.23639953 C18.5284087,1.56237857 16.9126197,0.351528591 14.9824768,0.0652638039 C14.6945525,0.0225744248 14.3998896,0 14.0994507,0 C10.7470144,0 8.02941176,2.72764051 8.02941176,6.09245954 C8.02941176,7.4716954 8.48623995,8.74368079 9.25619673,9.7648002 L19.4043461,23.2279412 L26.6531243,9.76488804 C27.2030684,8.74376863 27.5294118,7.47178324 27.5294118,6.09254738 C27.5293242,3.02971618 25.9208865,0.495671124 23.8262154,0.0652638039 Z" id="Shape" fill="#FF455E"></path>
                                    <path d="M5.01833858,9.17647059 C3.83045511,9.17647059 2.86764706,10.1443107 2.86764706,11.3380096 L2.86764706,25.5220588 L7.16911765,25.5220588 L7.16911765,11.3380096 C7.1690301,10.1443107 6.20604697,9.17647059 5.01833858,9.17647059 Z" id="Shape" fill="#FF9B5F"></path>
                                    <path d="M4.31518772,23.473978 L4.31518772,11.3277694 C4.31518772,10.1395505 3.34913369,9.17647059 2.15754995,9.17647059 C0.96596621,9.17647059 0,10.1397257 0,11.3277694 L0.0120317639,24.8910138 C0.0124708793,25.3820111 0.210248487,26.1338755 0.451586349,26.5618235 L8.9983542,40.361941 C9.23969206,40.7898889 9.43711838,41.5418409 9.43711838,42.0327507 L9.43711838,44.7352941 L18.0661765,44.7352941 L18.0661765,40.1039638 L14.4491823,31.2847506 L4.31518772,23.473978 Z" id="Shape" fill="#FEBB8E"></path>
                                    <path d="M18.0661765,34.7534414 C18.0661765,33.2915565 17.2107092,31.2498193 16.1651773,30.2161317 L7.98843674,22.1327018 C7.1450134,21.2989033 5.77746144,21.2989033 4.9340381,22.1327018 C4.09061475,22.9665002 4.09061475,24.3184461 4.9340381,25.1522445 L11.5343488,31.6772345 L11.5343488,33.5947797 C11.5343488,37.2135553 14.4056277,40.1470588 18.0661765,40.1470588 L18.0661765,34.7534414 L18.0661765,34.7534414 Z" id="Shape" fill="#FCD5A2"></path>
                                    <path d="M33.9816614,9.17647059 C35.1695449,9.17647059 36.1323529,10.1443107 36.1323529,11.3380096 L36.1323529,25.5220588 L31.8308824,25.5220588 L31.8308824,11.3380096 C31.8309699,10.1443107 32.793953,9.17647059 33.9816614,9.17647059 Z" id="Shape" fill="#FF9B5F"></path>
                                    <path d="M34.6847913,23.473978 L34.6847913,11.3277694 C34.6847913,10.1395505 35.65085,9.17647059 36.8424396,9.17647059 C38.0341169,9.17647059 39,10.1397257 39,11.3277694 L38.9879682,24.8910138 C38.9876169,25.3820111 38.7897505,26.1338755 38.5484115,26.5618235 L30.0016021,40.361941 C29.760263,40.7898889 29.5628357,41.5418409 29.5628357,42.0327507 L29.5628357,44.7352941 L20.9338235,44.7352941 L20.9338235,40.1039638 L24.5507474,31.2847506 L34.6847913,23.473978 Z" id="Shape" fill="#FEBB8E"></path>
                                    <path d="M20.9338235,34.7534414 C20.9338235,33.2915565 21.7892908,31.2498193 22.8348227,30.2161317 L31.0115633,22.1327018 C31.8549866,21.2989033 33.2225386,21.2989033 34.0659619,22.1327018 C34.9093852,22.9665002 34.9093852,24.3184461 34.0659619,25.1522445 L27.4656512,31.6772345 L27.4656512,33.5947797 C27.4656512,37.2135553 24.5943723,40.1470588 20.9338235,40.1470588 L20.9338235,34.7534414 L20.9338235,34.7534414 Z" id="Shape" fill="#FCD5A2"></path>
                                </g>
                            </g>
                            <g id="SocialTruth" transform="translate(345.716529, 233.938727)">
                                <g id="socialTruth">
                                    <use fill="black" fill-opacity="1" filter="url(#filter-12)" xlink:href="#path-11"></use>
                                    <use fill="url(#radialGradient-10)" fill-rule="evenodd" xlink:href="#path-11"></use>
                                    <use fill="black" fill-opacity="1" filter="url(#filter-13)" xlink:href="#path-11"></use>
                                    <use stroke="#FFFFFF" stroke-width="1" xlink:href="#path-11"></use>
                                </g>
                                <g id="libra-scale" transform="translate(26.283471, 26.061273)" fill-rule="nonzero">
                                    <path d="M19.6042781,0 C19.2587437,0 18.9786096,0.279756746 18.9786096,0.624825757 L18.9786096,33.368984 L20.2299465,33.368984 L20.2299465,0.624825757 C20.2299465,0.279756746 19.9498125,0 19.6042781,0 Z" id="Shape" fill="#FFBB02"></path>
                                    <path d="M25.4438503,34.859628 C25.4438503,33.1152664 23.2056482,31.7005348 21.4602183,31.7005348 L17.5194789,31.7005348 L15.0472215,31.7005348 C13.3017915,31.7005348 11.8877005,33.1152664 11.8877005,34.859628 L13.1237914,35.6836275 L14.0435974,35.0705065 L19.4898864,37.3315508 L25.4438503,34.859628 Z" id="Shape" fill="#FFDD77"></path>
                                    <path d="M24.6096257,4.21723932 C24.6096257,2.92425782 21.8839365,1.87700535 20.5641867,1.87700535 L18.2210304,1.87700535 L15.7371129,1.87700535 C14.4173631,1.87700535 13.3475936,2.92425782 13.3475936,4.21723932 L14.5895143,5.02844299 L15.2973483,4.56617455 L19.3925705,5.83957219 L24.6096257,4.21723932 Z" id="Shape" fill="#FFCC3D"></path>
                                    <g id="Group" transform="translate(0.834225, 6.673797)" fill="#FFDD77">
                                        <polygon id="Shape" points="32.0088457 0.0483668914 30.8171824 0.0483668914 25.75674 17.1123585 26.9484034 17.4666936 31.412976 2.41171793 35.8777008 17.4666936 37.069288 17.1123585"></polygon>
                                        <polygon id="Shape" points="6.30581229 0.0483668914 5.11414894 0.0483668914 0.0537066275 17.1123585 1.2452939 17.4666936 5.71001865 2.41171793 10.1745913 17.4666936 11.3662546 17.1123585"></polygon>
                                    </g>
                                    <g id="Group" transform="translate(1.459893, 23.983957)" fill="#FFCC3D">
                                        <path d="M25.7194466,0.0747562863 C26.5041391,2.08676402 28.4710764,3.51414894 30.7750704,3.51414894 C33.0791404,3.51414894 35.0460016,2.08676402 35.8306941,0.0747562863 L25.7194466,0.0747562863 Z" id="Shape"></path>
                                        <path d="M5.09658737,3.51414894 C7.40065739,3.51414894 9.36751863,2.08676402 10.1522111,0.0747562863 L0.0408876099,0.0747562863 C0.825580123,2.08668859 2.79251736,3.51414894 5.09658737,3.51414894 Z" id="Shape"></path>
                                    </g>
                                    <g id="Group" transform="translate(0.000000, 23.358289)" fill="#FFBB02">
                                        <path d="M38.3776758,1.39184581 L26.3592773,1.39184581 C26.0155898,1.39184581 25.7369531,1.0951631 25.7369531,0.729216578 C25.7369531,0.363270053 26.0155898,0.066587344 26.3592773,0.066587344 L38.3776758,0.066587344 C38.7213633,0.066587344 39,0.363270053 39,0.729216578 C39,1.0951631 38.7213633,1.39184581 38.3776758,1.39184581 Z" id="Shape"></path>
                                        <path d="M12.6407227,1.39184581 L0.622324219,1.39184581 C0.278636719,1.39184581 0,1.0951631 0,0.729216578 C0,0.363270053 0.278636719,0.066587344 0.622324219,0.066587344 L12.6407227,0.066587344 C12.9844102,0.066587344 13.2630469,0.363270053 13.2630469,0.729216578 C13.2630469,1.0951631 12.9844102,1.39184581 12.6407227,1.39184581 Z" id="Shape"></path>
                                    </g>
                                    <path d="M25.6178223,34.828877 L13.376128,34.828877 L10.8916791,34.828877 C9.13764189,34.828877 7.71657754,36.2290135 7.71657754,37.9572193 L8.54475253,37.9572193 L10.2010265,37.9572193 L30.4491979,37.9572193 C30.4491979,36.2290884 27.3717835,34.828877 25.6178223,34.828877 Z" id="Shape" fill="#FFCC3D"></path>
                                    <path d="M25.4438503,4.20008885 L24.2214424,5.00534759 L22.9990345,4.20008885 C22.9990345,2.916583 21.9460729,1.87700535 20.6470588,1.87700535 L23.0919494,1.87700535 C24.3909636,1.87700535 25.4438503,2.916583 25.4438503,4.20008885 Z" id="Shape" fill="#FFBB02"></path>
                                    <rect id="Rectangle-path" fill="#FFDD77" x="11.4705882" y="4.37967914" width="15.8502674" height="2.5026738"></rect>
                                    <g id="Group" transform="translate(4.171123, 6.256684)" fill="#FFCC3D">
                                        <path d="M30.2302655,1.30756213 L0.636044634,1.30756213 C0.291319903,1.30756213 0.0118422725,1.02835705 0.0118422725,0.683968493 C0.0118422725,0.339579938 0.291319903,0.0603748553 0.636044634,0.0603748553 L30.2303419,0.0603748553 C30.5750667,0.0603748553 30.8545443,0.339579938 30.8545443,0.683968493 C30.8545443,1.02835705 30.5750667,1.30756213 30.2302655,1.30756213 Z" id="Shape"></path>
                                        <path d="M23.1110733,28.7130141 L21.8626686,29.5445232 L20.6142639,28.7130141 C20.6142639,26.9527551 19.1860858,25.5251302 17.4232681,25.5251302 L19.9201539,25.5251302 C21.6828189,25.5251302 23.1110733,26.9528314 23.1110733,28.7130141 Z" id="Shape"></path>
                                    </g>
                                    <g id="Group" transform="translate(3.336898, 34.828877)" fill="#FFBB02">
                                        <path d="M28.1022421,3.25932778 L25.6063067,3.25932778 C25.6063067,1.46661592 24.1786723,0.0142186222 22.4165256,0.0142186222 L24.9124609,0.0142186222 C26.6745313,0.0142186222 28.1022421,1.46669361 28.1022421,3.25932778 Z" id="Shape"></path>
                                        <path d="M31.8672622,3.89388235 L0.667497176,3.89388235 C0.322903668,3.89388235 0.0435324245,3.6096653 0.0435324245,3.25909468 C0.0435324245,2.90852406 0.322903668,2.62430701 0.667497176,2.62430701 L31.8672622,2.62430701 C32.2118557,2.62430701 32.4912269,2.90852406 32.4912269,3.25909468 C32.4912269,3.6096653 32.2118557,3.89388235 31.8672622,3.89388235 Z" id="Shape"></path>
                                    </g>
                                </g>
                            </g>
                        </g>
                    </g>
                </g>
            </g>
        </g>
    </g>
</svg>